<svg height="511pt" viewBox="1 -26 511.99937 511" width="511pt" xmlns="http://www.w3.org/2000/svg"><path d="m504.5 375.597656-200.589844-347.4375c-10.003906-17.320312-27.910156-27.660156-47.910156-27.660156-.003906 0-.007812 0-.007812 0-19.996094 0-37.902344 10.34375-47.894532 27.660156l-173.308594 300.164063c-2.101562 3.636719-.855468 8.285156 2.78125 10.386719 3.636719 2.097656 8.285157.851562 10.386719-2.785157l173.308594-300.164062c7.246094-12.554688 20.230469-20.054688 34.726563-20.054688 14.503906 0 27.492187 7.496094 34.746093 20.058594l200.589844 347.4375c7.25 12.550781 7.25 27.542969 0 40.101563-7.25 12.566406-20.238281 20.066406-34.738281 20.066406h-401.1875c-14.496094 0-27.480469-7.5-34.730469-20.058594-7.253906-12.558594-7.253906-27.554688-.003906-40.113281l12.175781-21.085938c2.097656-3.636719.851562-8.285156-2.785156-10.386719-3.636719-2.097656-8.285156-.855468-10.386719 2.785157l-12.175781 21.085937c-9.996094 17.316406-9.996094 38 .003906 55.320313 10 17.316406 27.90625 27.65625 47.902344 27.65625h401.1875c20 0 37.914062-10.339844 47.910156-27.664063 10-17.320312 10-38 0-55.3125zm0 0"/><path d="m55.40625 418.019531h401.183594c5.5 0 10.039062-2.621093 12.789062-7.382812s2.75-10.003907 0-14.765625l-200.589844-347.4375c-2.75-4.761719-7.292968-7.382813-12.789062-7.382813s-10.039062 2.621094-12.789062 7.386719l-200.59375 347.433594c-2.746094 4.761718-2.746094 10.003906 0 14.769531 2.753906 4.757813 7.292968 7.378906 12.789062 7.378906zm200.59375-361.324219 199.832031 346.121094h-399.664062zm0 0"/><path d="m256 304.730469c-21.835938 0-39.601562 17.765625-39.601562 39.601562 0 21.835938 17.765624 39.601563 39.601562 39.601563s39.601562-17.765625 39.601562-39.601563c0-21.835937-17.765624-39.601562-39.601562-39.601562zm0 64c-13.453125 0-24.394531-10.945313-24.394531-24.398438 0-13.449219 10.941406-24.394531 24.394531-24.394531s24.394531 10.945312 24.394531 24.394531c0 13.453125-10.941406 24.398438-24.394531 24.398438zm0 0"/><path d="m247.082031 293.886719h17.832031c14.574219 0 26.429688-11.863281 26.429688-26.441407v-67.324218c0-4.199219-3.402344-7.605469-7.605469-7.605469-4.199219 0-7.601562 3.40625-7.601562 7.605469v67.324218c0 6.195313-5.035157 11.234376-11.222657 11.234376h-17.832031c-6.1875 0-11.222656-5.039063-11.222656-11.234376v-112.945312c0-6.1875 5.035156-11.222656 11.222656-11.222656h17.832031c6.1875 0 11.222657 5.035156 11.222657 11.222656v15.207031c0 4.199219 3.402343 7.601563 7.601562 7.601563 4.203125 0 7.605469-3.402344 7.605469-7.601563v-15.207031c0-14.574219-11.855469-26.429688-26.429688-26.429688h-17.832031c-14.574219 0-26.429687 11.855469-26.429687 26.429688v112.945312c0 14.578126 11.855468 26.441407 26.429687 26.441407zm0 0"/></svg>